<mxfile host="app.diagrams.net" modified="2021-05-22T22:11:58.687Z" agent="5.0 (Windows NT 10.0; Win64; x64) AppleWebKit/537.36 (KHTML, like Gecko) Chrome/90.0.4430.212 Safari/537.36" etag="IaL5nZ7oyv0mfj9xDh0S" version="14.6.13" type="github">
  <diagram id="jiYBikwPSR93aFALshaf" name="Page-1">
    <mxGraphModel dx="1038" dy="523" grid="1" gridSize="10" guides="1" tooltips="1" connect="1" arrows="1" fold="1" page="1" pageScale="1" pageWidth="827" pageHeight="1169" math="0" shadow="0">
      <root>
        <mxCell id="0" />
        <mxCell id="1" parent="0" />
        <mxCell id="8g-KMRlPz4CVoml_0RrJ-3" value="" style="edgeStyle=orthogonalEdgeStyle;rounded=0;orthogonalLoop=1;jettySize=auto;html=1;" edge="1" parent="1" source="8g-KMRlPz4CVoml_0RrJ-1" target="8g-KMRlPz4CVoml_0RrJ-2">
          <mxGeometry relative="1" as="geometry" />
        </mxCell>
        <mxCell id="8g-KMRlPz4CVoml_0RrJ-5" value="" style="edgeStyle=orthogonalEdgeStyle;rounded=0;orthogonalLoop=1;jettySize=auto;html=1;" edge="1" parent="1" source="8g-KMRlPz4CVoml_0RrJ-1" target="8g-KMRlPz4CVoml_0RrJ-4">
          <mxGeometry relative="1" as="geometry" />
        </mxCell>
        <mxCell id="8g-KMRlPz4CVoml_0RrJ-7" value="" style="edgeStyle=orthogonalEdgeStyle;rounded=0;orthogonalLoop=1;jettySize=auto;html=1;" edge="1" parent="1" source="8g-KMRlPz4CVoml_0RrJ-1" target="8g-KMRlPz4CVoml_0RrJ-6">
          <mxGeometry relative="1" as="geometry" />
        </mxCell>
        <mxCell id="8g-KMRlPz4CVoml_0RrJ-1" value="sever" style="rounded=0;whiteSpace=wrap;html=1;" vertex="1" parent="1">
          <mxGeometry x="350" y="240" width="120" height="60" as="geometry" />
        </mxCell>
        <mxCell id="8g-KMRlPz4CVoml_0RrJ-2" value="error 404" style="rounded=0;whiteSpace=wrap;html=1;" vertex="1" parent="1">
          <mxGeometry x="560" y="240" width="120" height="60" as="geometry" />
        </mxCell>
        <mxCell id="8g-KMRlPz4CVoml_0RrJ-4" value="error 500" style="rounded=0;whiteSpace=wrap;html=1;" vertex="1" parent="1">
          <mxGeometry x="150" y="240" width="120" height="60" as="geometry" />
        </mxCell>
        <mxCell id="8g-KMRlPz4CVoml_0RrJ-6" value="index" style="rounded=0;whiteSpace=wrap;html=1;" vertex="1" parent="1">
          <mxGeometry x="350" y="100" width="120" height="60" as="geometry" />
        </mxCell>
      </root>
    </mxGraphModel>
  </diagram>
</mxfile>
